<?xml version="1.0" encoding="utf-8"?>
<!-- Generator: Adobe Illustrator 24.0.1, SVG Export Plug-In . SVG Version: 6.00 Build 0)  -->
<svg version="1.1" id="图层_1" xmlns="http://www.w3.org/2000/svg" xmlns:xlink="http://www.w3.org/1999/xlink" x="0px" y="0px"
	 viewBox="0 0 1024 1024" style="enable-background:new 0 0 1024 1024;" xml:space="preserve">
<style type="text/css">
	.st0{fill:#493DC1;}
	.st1{fill:#891886;}
	.st2{fill:#112803;}
	.st3{fill:#A32152;}
</style>
<path class="st0" d="M790.68,182.4H622.01V112H401.99v70.4H233.32V912h557.36V182.4z M714.41,258.67v577.05H309.59V258.67H714.41z"
	/>
<path class="st1" d="M663.07,771.88H360.93c-3.24,0-5.87-2.63-5.87-5.87V654.54c0-3.24,2.63-5.87,5.87-5.87h302.15
	c3.24,0,5.87,2.63,5.87,5.87v111.47C668.94,769.25,666.31,771.88,663.07,771.88z"/>
<path class="st2" d="M663.07,604.98H360.93c-3.24,0-5.87-2.63-5.87-5.87V487.64c0-3.24,2.63-5.87,5.87-5.87h302.15
	c3.24,0,5.87,2.63,5.87,5.87v111.47C668.94,602.36,666.31,604.98,663.07,604.98z"/>
<path class="st3" d="M663.07,438.09H360.93c-3.24,0-5.87-2.63-5.87-5.87V320.75c0-3.24,2.63-5.87,5.87-5.87h302.15
	c3.24,0,5.87,2.63,5.87,5.87v111.47C668.94,435.46,666.31,438.09,663.07,438.09z"/>
</svg>
